<?xml version="1.0" encoding="UTF-8" standalone="no"?>
<svg width="358px" height="449px" viewBox="0 0 358 449" version="1.1" xmlns="http://www.w3.org/2000/svg" xmlns:xlink="http://www.w3.org/1999/xlink" xmlns:sketch="http://www.bohemiancoding.com/sketch/ns">
    <title>Slice 1</title>
    <description>Created with Sketch (http://www.bohemiancoding.com/sketch)</description>
    <defs></defs>
    <g id="Page 1" stroke="none" stroke-width="1" fill="none" fill-rule="evenodd">
        <path d="M211.433594,114 C198.773454,143.046625 130.010552,206.017151 4.43359375,213.230469" id="Path 1" stroke="#000000" stroke-width="12"></path>
        <path d="M354,216.761553 C354,216.761553 278.547911,219.095377 223.880187,192.54771 C173.893345,168.273167 147,112.583267 147,112.583267" id="Path 3" stroke="#000000" stroke-width="12"></path>
        <path d="M315.606836,235.133517 C307.401393,292.793389 324.226797,335.531364 327.2374,380.863553 C328.802734,404.433594 327.888672,415.142578 320.517347,437.052168" id="Path" stroke="#000000" stroke-width="12"></path>
        <path d="M27.5570542,231.599496 C60.1507427,282.897913 33.0961319,317.571721 35.220544,365.780166 C37.3574215,414.271477 49.6289059,428.638665 54.0003474,440.068072" id="Path" stroke="#000000" stroke-width="12"></path>
        <path d="M156.657017,342.173042 C163.121882,351.539032 155.056735,364.258997 146.435736,367.499948 C119.292626,377.704041 111.1772,341.515168 117.264423,321.666771 C124.306042,335.264123 147.522529,328.939429 156.657017,342.173042 Z M156.657017,342.173042" id="Path" stroke="#000000" fill="#000000"></path>
        <path d="M215.917199,314.086179 C145.420603,229.050718 49.4007078,331.987478 110.416292,385.595009 C161.16562,430.182736 287.552862,396.696129 265.426034,319.631692 C253.455418,277.939822 198.775021,256.061914 168.452578,231.599496" id="Path" stroke="#000000" stroke-width="12"></path>
        <path d="M181.932964,3.94726562 C175.40562,9.38867176 170.401714,27.4980469 175.40562,39.3398438 C179.650661,49.3857784 188.184083,59.0328637 184.891948,78.0839844 C184.387364,81.0039408 179.742569,93.7128906 175.40562,93.7128906" id="Path" stroke="#000000" stroke-width="12"></path>
    </g>
</svg>